<svg width="32" height="32" viewBox="0 0 32 32" fill="none" xmlns="http://www.w3.org/2000/svg">
  <circle cx="16" cy="16" r="14.5" stroke="#80EF80" stroke-width="2.5" />
  
  <path d="M16 7C19.8 7 23.5 8.8 23.5 12.5C23.5 16.3 19.1 19.5 15.4 19.5C11.6 19.5 8.5 16.3 8.5 12.5C8.5 8.8 12.2 7 16 7Z" 
        fill="#8E9FB0" 
        transform="translate(0, 3.5)" />
        
  <path d="M16 9C17.5 9 19.5 10 19.5 12C19.5 14 17.5 15.5 15.5 15.5C13.5 15.5 12.5 14 12.5 12C12.5 10 14.5 9 16 9Z" 
        fill="#A5B4C2" 
        transform="translate(0, 3.5)" />
</svg>